<svg width="100" height="100" viewBox="0 0 100 100" fill="none" xmlns="http://www.w3.org/2000/svg">
<path d="M71.6691 0C88.6155 0 100 11.8906 100 29.5836V70.4164C100 88.1094 88.6155 100 71.6641 100H28.3309C11.3845 100 0 88.1094 0 70.4164V29.5836C0 11.8906 11.3845 0 28.3309 0H71.6691ZM77.183 52.7503C71.8232 49.4066 67.6853 54.1022 66.5691 55.6037C65.4931 57.0537 64.568 58.6533 63.5926 60.2528C61.2094 64.2002 58.4792 68.7513 53.753 71.3983C46.8849 75.2012 41.671 71.6976 37.9202 69.1486C36.5124 68.1992 35.1448 67.3013 33.7823 66.7028C30.4236 65.2528 27.4019 66.904 22.917 72.6006C20.564 75.5779 18.231 78.5294 15.8679 81.4706C14.4551 83.2301 14.792 85.9443 16.6975 87.1207C19.7394 88.9938 23.45 90 27.6432 90H69.7819C72.1601 90 74.5433 89.6749 76.8159 88.9319C81.9343 87.2601 85.9968 83.4314 88.1186 78.3746C89.9085 74.1228 90.7784 68.9628 89.1041 64.6698C88.546 63.2456 87.7113 61.9195 86.5398 60.7534C83.4678 57.7038 80.5969 54.8555 77.183 52.7503ZM32.4943 20C25.6011 20 20 25.6087 20 32.5C20 39.3913 25.6011 45 32.4943 45C39.3825 45 44.9886 39.3913 44.9886 32.5C44.9886 25.6087 39.3825 20 32.4943 20Z" fill="#A3A3A3"/>
</svg>
