<svg width="207" height="37" viewBox="0 0 207 37" fill="none" xmlns="http://www.w3.org/2000/svg">
<path d="M16.056 36L7.032 24.672V36H0.312V0.48H7.032V20.688L15.96 9.408H24.696L12.984 22.752L24.792 36H16.056ZM35.0633 13.536C35.9273 12.128 37.0473 11.024 38.4233 10.224C39.8313 9.424 41.4313 9.024 43.2233 9.024V16.08H41.4473C39.3353 16.08 37.7353 16.576 36.6473 17.568C35.5913 18.56 35.0633 20.288 35.0633 22.752V36H28.3433V9.408H35.0633V13.536ZM59.5575 36.432C56.9975 36.432 54.6935 35.872 52.6455 34.752C50.5975 33.6 48.9815 31.984 47.7975 29.904C46.6455 27.824 46.0695 25.424 46.0695 22.704C46.0695 19.984 46.6615 17.584 47.8455 15.504C49.0615 13.424 50.7095 11.824 52.7895 10.704C54.8695 9.552 57.1895 8.976 59.7495 8.976C62.3095 8.976 64.6295 9.552 66.7095 10.704C68.7895 11.824 70.4215 13.424 71.6055 15.504C72.8215 17.584 73.4295 19.984 73.4295 22.704C73.4295 25.424 72.8055 27.824 71.5575 29.904C70.3415 31.984 68.6775 33.6 66.5655 34.752C64.4855 35.872 62.1495 36.432 59.5575 36.432ZM59.5575 30.576C60.7735 30.576 61.9095 30.288 62.9655 29.712C64.0535 29.104 64.9175 28.208 65.5575 27.024C66.1975 25.84 66.5175 24.4 66.5175 22.704C66.5175 20.176 65.8455 18.24 64.5015 16.896C63.1895 15.52 61.5735 14.832 59.6535 14.832C57.7335 14.832 56.1175 15.52 54.8055 16.896C53.5255 18.24 52.8855 20.176 52.8855 22.704C52.8855 25.232 53.5095 27.184 54.7575 28.56C56.0375 29.904 57.6375 30.576 59.5575 30.576Z" fill="white"/>
<path d="M93.0949 9.024C96.2629 9.024 98.8229 10.032 100.775 12.048C102.727 14.032 103.703 16.816 103.703 20.4V36H96.9829V21.312C96.9829 19.2 96.4549 17.584 95.3989 16.464C94.3429 15.312 92.9029 14.736 91.0789 14.736C89.2229 14.736 87.7509 15.312 86.6629 16.464C85.6069 17.584 85.0789 19.2 85.0789 21.312V36H78.3589V9.408H85.0789V12.72C85.9749 11.568 87.1109 10.672 88.4869 10.032C89.8949 9.36 91.4309 9.024 93.0949 9.024ZM135.197 9.408V36H128.429V32.64C127.565 33.792 126.429 34.704 125.021 35.376C123.645 36.016 122.141 36.336 120.509 36.336C118.429 36.336 116.589 35.904 114.989 35.04C113.389 34.144 112.125 32.848 111.197 31.152C110.301 29.424 109.853 27.376 109.853 25.008V9.408H116.573V24.048C116.573 26.16 117.101 27.792 118.157 28.944C119.213 30.064 120.653 30.624 122.477 30.624C124.333 30.624 125.789 30.064 126.845 28.944C127.901 27.792 128.429 26.16 128.429 24.048V9.408H135.197ZM156.804 9.024C158.82 9.024 160.612 9.472 162.18 10.368C163.748 11.232 164.964 12.528 165.828 14.256C166.724 15.952 167.172 18 167.172 20.4V36H160.452V21.312C160.452 19.2 159.924 17.584 158.868 16.464C157.812 15.312 156.372 14.736 154.548 14.736C152.692 14.736 151.22 15.312 150.132 16.464C149.076 17.584 148.548 19.2 148.548 21.312V36H141.828V0.48H148.548V12.72C149.412 11.568 150.564 10.672 152.004 10.032C153.444 9.36 155.044 9.024 156.804 9.024ZM183.738 36.432C181.562 36.432 179.61 36.048 177.882 35.28C176.154 34.48 174.778 33.408 173.754 32.064C172.762 30.72 172.218 29.232 172.122 27.6H178.89C179.018 28.624 179.514 29.472 180.378 30.144C181.274 30.816 182.378 31.152 183.69 31.152C184.97 31.152 185.962 30.896 186.666 30.384C187.402 29.872 187.77 29.216 187.77 28.416C187.77 27.552 187.322 26.912 186.426 26.496C185.562 26.048 184.17 25.568 182.25 25.056C180.266 24.576 178.634 24.08 177.354 23.568C176.106 23.056 175.018 22.272 174.09 21.216C173.194 20.16 172.746 18.736 172.746 16.944C172.746 15.472 173.162 14.128 173.994 12.912C174.858 11.696 176.074 10.736 177.642 10.032C179.242 9.328 181.114 8.976 183.258 8.976C186.426 8.976 188.954 9.776 190.842 11.376C192.73 12.944 193.77 15.072 193.962 17.76H187.53C187.434 16.704 186.986 15.872 186.186 15.264C185.418 14.624 184.378 14.304 183.066 14.304C181.85 14.304 180.906 14.528 180.234 14.976C179.594 15.424 179.274 16.048 179.274 16.848C179.274 17.744 179.722 18.432 180.618 18.912C181.514 19.36 182.906 19.824 184.794 20.304C186.714 20.784 188.298 21.28 189.546 21.792C190.794 22.304 191.866 23.104 192.762 24.192C193.69 25.248 194.17 26.656 194.202 28.416C194.202 29.952 193.77 31.328 192.906 32.544C192.074 33.76 190.858 34.72 189.258 35.424C187.69 36.096 185.85 36.432 183.738 36.432ZM202.694 36.336C201.478 36.336 200.47 35.968 199.67 35.232C198.902 34.464 198.518 33.52 198.518 32.4C198.518 31.28 198.902 30.352 199.67 29.616C200.47 28.848 201.478 28.464 202.694 28.464C203.878 28.464 204.854 28.848 205.622 29.616C206.39 30.352 206.774 31.28 206.774 32.4C206.774 33.52 206.39 34.464 205.622 35.232C204.854 35.968 203.878 36.336 202.694 36.336Z" fill="#222221"/>
</svg>
